<svg width="64" height="64" viewBox="0 0 64 64" fill="none" xmlns="http://www.w3.org/2000/svg">
<rect width="64" height="64" rx="5.33333" fill="#F8FAFC"/>
<path d="M32 31.0625C30.7568 31.0625 29.5645 30.5686 28.6854 29.6896C27.8064 28.8105 27.3125 27.6182 27.3125 26.375C27.3125 25.1318 27.8064 23.9395 28.6854 23.0604C29.5645 22.1814 30.7568 21.6875 32 21.6875C33.2432 21.6875 34.4355 22.1814 35.3146 23.0604C36.1936 23.9395 36.6875 25.1318 36.6875 26.375C36.6875 26.9906 36.5663 27.6001 36.3307 28.1688C36.0951 28.7375 35.7498 29.2543 35.3146 29.6896C34.8793 30.1248 34.3625 30.4701 33.7938 30.7057C33.2251 30.9413 32.6156 31.0625 32 31.0625ZM32 13.25C28.519 13.25 25.1806 14.6328 22.7192 17.0942C20.2578 19.5556 18.875 22.894 18.875 26.375C18.875 36.2188 32 50.75 32 50.75C32 50.75 45.125 36.2188 45.125 26.375C45.125 22.894 43.7422 19.5556 41.2808 17.0942C38.8194 14.6328 35.481 13.25 32 13.25Z" fill="#58A0FF"/>
</svg>
