<svg width="2333" height="267" viewBox="0 0 2333 267" fill="none" xmlns="http://www.w3.org/2000/svg">
<path d="M40.9401 61.6343V267H0.483756L0 0H40.6124L347.909 203.875L347.745 0.647813H388.529V266.362H347.589L40.9401 61.6343Z" fill="#58A0FF"/>
<path d="M583.687 111.752H422.026V154.404H583.687V111.752Z" fill="#58A0FF"/>
<path d="M802.464 160.162V107.484H1004.74V201.529C1004.74 245.179 988.501 266.999 956.026 266.999H664.912C632.329 266.999 616.099 245.179 616.201 201.529L616.684 64.6157C616.794 21.9632 632.703 0.636963 664.421 0.636963H1004.73V53.9526H672.84C662.376 53.9526 657.141 61.6131 657.141 76.924V191.987C657.141 206.455 662.368 213.684 672.84 213.684H948.419C959.202 213.684 964.547 206.537 964.437 192.234V160.162H802.456H802.464Z" fill="#58A0FF"/>
<path d="M1426.44 266.577H1385.5V180.851H1078.53V266.577H1038.24V66.1165C1038.24 22.045 1054.48 0.00927734 1086.95 0.00927734H1377.58C1410.16 0.00927734 1426.45 22.2609 1426.45 66.7643V266.588L1426.44 266.577ZM1078.53 127.525H1385.49V74.4866C1385.49 60.3685 1380.1 53.3146 1369.31 53.3146H1094.7C1083.91 53.3146 1078.52 60.5844 1078.52 75.1344V127.535L1078.53 127.525Z" fill="#58A0FF"/>
<path d="M1709.47 267H1660.92V54.1691H1458.32V0H1911.41V53.3156H1709.47V267Z" fill="#58A0FF"/>
<path d="M2332.64 267H1944.26V0H2332.64V53.3156H1985.37V107.269H2332.64V160.584H1985.37V213.684H2332.64V267Z" fill="#58A0FF"/>
</svg>
