<svg width="83" height="24" viewBox="0 0 83 24" fill="none" xmlns="http://www.w3.org/2000/svg">
<path fill-rule="evenodd" clip-rule="evenodd" d="M82.3744 3.47918V0H64.6878C63.6634 0.00128701 62.6688 0.344129 61.8612 0.974274C61.0536 1.60442 60.4792 2.48588 60.2289 3.47918H82.3744ZM25.8354 15.8354H18.5411L10.3545 3.7877H3.05176e-05V0.309265H12.1968L20.3834 12.357H22.357V0.309265H25.8354V15.8354ZM6.72104 6.17072H3.2426V15.8354H6.72104V6.17072ZM34.2556 15.5069H37.7318V11.8393H51.1301C52.4511 11.8379 53.7176 11.3125 54.6517 10.3784C55.5858 9.44432 56.1112 8.17779 56.1126 6.85676V5.62113C56.1112 4.30003 55.5859 3.03343 54.6518 2.0992C53.7177 1.16497 52.4511 0.639419 51.1301 0.637848H29.8137V4.11628H51.1323C51.5311 4.11687 51.9135 4.27563 52.1954 4.55774C52.4774 4.83985 52.636 5.22227 52.6364 5.62113V6.85676C52.6358 7.25549 52.4771 7.63772 52.1952 7.91967C51.9132 8.20162 51.531 8.36028 51.1323 8.36086H34.2556V15.5069ZM64.6878 12.6655H81.9116V16.1439H64.6878C63.4682 16.1439 62.2986 15.6595 61.4363 14.7971C60.5739 13.9348 60.0894 12.7652 60.0894 11.5456V6.5408C61.2156 6.53636 62.3884 6.52896 63.5619 6.52155L63.5624 6.52155L63.5679 6.52151V11.5478C63.5685 11.8445 63.6867 12.1287 63.8967 12.3383C64.1067 12.5478 64.3912 12.6655 64.6878 12.6655Z" fill="url(#paint0_linear_11_1461)"/>
<path d="M3.48737 20.5739V23.9411H2.8473L1.1689 21.8963V23.9411H0.399048V20.5739H1.04356L2.71751 22.618V20.5739H3.48737Z" fill="#333333"/>
<path d="M6.98435 23.221H5.4209L5.12424 23.9426H4.32397L5.82512 20.5739H6.59126L8.09685 23.9411H7.28102L6.98435 23.221ZM6.73885 22.6276L6.20485 21.3386L5.67085 22.6276H6.73885Z" fill="#333333"/>
<path d="M11.1592 22.2056H11.8712V23.5718C11.6799 23.7142 11.465 23.8216 11.2363 23.8892C11.0012 23.9624 10.7565 23.9996 10.5102 23.9997C10.1822 24.0052 9.85789 23.9287 9.56684 23.7772C9.29499 23.6348 9.06783 23.4199 8.91046 23.1564C8.75443 22.8832 8.67236 22.574 8.67236 22.2594C8.67236 21.9448 8.75443 21.6356 8.91046 21.3623C9.06881 21.0978 9.29795 20.8828 9.57203 20.7416C9.8662 20.5898 10.1934 20.5134 10.5243 20.5191C10.7992 20.515 11.0722 20.5654 11.3276 20.6674C11.5612 20.7613 11.769 20.9099 11.9335 21.1005L11.4336 21.5619C11.3236 21.4406 11.1891 21.3441 11.039 21.2786C10.8889 21.2132 10.7266 21.1803 10.5629 21.1821C10.3638 21.1781 10.1669 21.2243 9.99033 21.3164C9.82669 21.4031 9.6915 21.5352 9.60095 21.6968C9.50939 21.8694 9.46152 22.0618 9.46152 22.2572C9.46152 22.4525 9.50939 22.6449 9.60095 22.8175C9.69154 22.9787 9.82572 23.1111 9.9881 23.1995C10.1615 23.2932 10.3562 23.3404 10.5533 23.3367C10.7641 23.3401 10.9724 23.2907 11.1592 23.1928V22.2056Z" fill="#333333"/>
<path d="M13.0742 20.5739H13.853V23.3055H15.5418V23.9411H13.0742V20.5739Z" fill="#333333"/>
<path d="M17.7304 22.7493V23.9426H16.9509V22.7396L15.647 20.5739H16.4747L17.3744 22.0699L18.274 20.5739H19.0387L17.7304 22.7493Z" fill="#333333"/>
<path d="M21.8571 23.221H20.2944L19.9977 23.9426H19.1996L20.6978 20.5739H21.4677L22.9733 23.9411H22.1574L21.8571 23.221ZM21.6123 22.6276L21.0783 21.3386L20.5443 22.6276H21.6123Z" fill="#333333"/>
<path d="M23.8054 20.574H25.3347C25.6697 20.5672 26.0017 20.6388 26.3041 20.7831C26.5741 20.9126 26.8012 21.117 26.9583 21.372C27.1114 21.6419 27.1918 21.9469 27.1918 22.2572C27.1918 22.5675 27.1114 22.8725 26.9583 23.1424C26.8012 23.3973 26.5741 23.6017 26.3041 23.7312C26.0019 23.8761 25.6698 23.948 25.3347 23.9411H23.8054V20.574ZM25.2969 23.3011C25.6336 23.3011 25.9021 23.2071 26.1024 23.0192C26.3026 22.8314 26.4015 22.5772 26.399 22.2568C26.399 21.9364 26.3002 21.6823 26.1024 21.4944C25.9046 21.3065 25.6361 21.2128 25.2969 21.2133H24.5849V23.3011H25.2969Z" fill="#333333"/>
<path d="M32.3361 20.7223C32.543 20.8108 32.7195 20.9577 32.8442 21.145C32.9607 21.3412 33.0222 21.5651 33.0222 21.7933C33.0222 22.0214 32.9607 22.2453 32.8442 22.4415C32.7206 22.63 32.5438 22.7774 32.3361 22.865C32.0906 22.9685 31.826 23.019 31.5596 23.0133H30.881V23.9419H30.1022V20.5739H31.5596C31.8261 20.5675 32.0908 20.618 32.3361 20.7223ZM32.0499 22.2249C32.1115 22.1722 32.1602 22.106 32.192 22.0313C32.2238 21.9567 32.2378 21.8757 32.2331 21.7947C32.2381 21.713 32.2242 21.6311 32.1924 21.5556C32.1607 21.4801 32.1119 21.4129 32.0499 21.3594C31.9282 21.2605 31.7505 21.211 31.5166 21.211H30.881V22.3799H31.5166C31.7505 22.3794 31.9282 22.3285 32.0499 22.2271V22.2249Z" fill="#333333"/>
<path d="M36.1053 23.221H34.5419L34.2452 23.9426H33.4464L34.9476 20.5754H35.7174L37.223 23.9426H36.4072L36.1053 23.221ZM35.8598 22.6276L35.3258 21.3386L34.7918 22.6276H35.8598Z" fill="#333333"/>
<path d="M39.4629 22.7493V23.9426H38.6834V22.7396L37.3795 20.5739H38.2072L39.1069 22.0699L40.0065 20.5739H40.7712L39.4629 22.7493Z" fill="#333333"/>
<path d="M44.102 23.7765C43.8311 23.6335 43.6047 23.4188 43.4478 23.1557C43.2918 22.8825 43.2097 22.5733 43.2097 22.2587C43.2097 21.944 43.2918 21.6348 43.4478 21.3616C43.6047 21.0985 43.8311 20.8838 44.102 20.7408C44.3682 20.6069 44.66 20.5313 44.9577 20.5193C45.2555 20.5073 45.5524 20.559 45.8286 20.6711C46.0585 20.7709 46.2617 20.9233 46.4219 21.1161L45.9213 21.5782C45.819 21.453 45.6897 21.3526 45.5432 21.2843C45.3967 21.2159 45.2367 21.1815 45.075 21.1836C44.8802 21.18 44.6878 21.227 44.5166 21.3201C44.3559 21.4094 44.2236 21.542 44.1346 21.7028C44.0445 21.875 43.9974 22.0665 43.9974 22.2609C43.9974 22.4553 44.0445 22.6468 44.1346 22.819C44.2234 22.9797 44.3558 23.1121 44.5166 23.2009C44.6876 23.2945 44.8801 23.3418 45.075 23.3382C45.2371 23.3401 45.3975 23.3051 45.5441 23.236C45.6907 23.1669 45.8197 23.0654 45.9213 22.9391L46.4219 23.4012C46.2624 23.5946 46.0589 23.7472 45.8286 23.8462C45.5774 23.9513 45.3072 24.0035 45.035 23.9997C44.7102 24.0049 44.3893 23.9281 44.102 23.7765Z" fill="#333333"/>
<path d="M48.0417 23.7735C47.769 23.6306 47.5408 23.4153 47.3824 23.1513C47.2264 22.8796 47.1443 22.5719 47.1443 22.2587C47.1443 21.9454 47.2264 21.6377 47.3824 21.3661C47.5408 21.102 47.769 20.8867 48.0417 20.7438C48.3342 20.5951 48.6577 20.5176 48.9859 20.5176C49.314 20.5176 49.6375 20.5951 49.93 20.7438C50.2045 20.8903 50.4341 21.1086 50.5942 21.3754C50.7542 21.6422 50.8388 21.9475 50.8388 22.2587C50.8388 22.5698 50.7542 22.8751 50.5942 23.1419C50.4341 23.4088 50.2045 23.6271 49.93 23.7735C49.6375 23.9222 49.314 23.9997 48.9859 23.9997C48.6577 23.9997 48.3342 23.9222 48.0417 23.7735ZM49.5251 23.1987C49.6839 23.1089 49.8146 22.9766 49.9026 22.8168C49.9927 22.6445 50.0398 22.453 50.0398 22.2587C50.0398 22.0643 49.9927 21.8728 49.9026 21.7006C49.8144 21.5406 49.6838 21.4082 49.5251 21.3179C49.3596 21.2283 49.1744 21.1814 48.9862 21.1814C48.7981 21.1814 48.6129 21.2283 48.4474 21.3179C48.2887 21.4082 48.1581 21.5406 48.0699 21.7006C47.9798 21.8728 47.9327 22.0643 47.9327 22.2587C47.9327 22.453 47.9798 22.6445 48.0699 22.8168C48.1579 22.9766 48.2886 23.1089 48.4474 23.1987C48.6127 23.2888 48.798 23.3359 48.9862 23.3359C49.1745 23.3359 49.3597 23.2888 49.5251 23.1987Z" fill="#333333"/>
<path d="M54.9852 20.5739V23.9411H54.3452L52.6668 21.8963V23.9411H51.8969V20.5739H52.5414L54.2154 22.618V20.5739H54.9852Z" fill="#333333"/>
<path d="M56.9625 21.2103H55.8849V20.5739H58.8189V21.2088H57.7413V23.9411H56.9625V21.2103Z" fill="#333333"/>
<path d="M61.8635 23.9426L61.2146 23.0044H60.4974V23.9426H59.7186V20.5739H61.1782C61.4447 20.5675 61.7095 20.618 61.9548 20.7223C62.1616 20.8108 62.3381 20.9577 62.4628 21.145C62.5843 21.3396 62.6462 21.5654 62.6408 21.7947C62.6493 22.0218 62.5873 22.2458 62.4633 22.4362C62.3392 22.6265 62.1592 22.7737 61.9481 22.8576L62.7031 23.9404L61.8635 23.9426ZM61.6663 21.3616C61.5446 21.2627 61.3669 21.2133 61.133 21.2133H60.4974V22.3836H61.133C61.3664 22.3836 61.5441 22.3324 61.6663 22.2301C61.7243 22.1736 61.7704 22.1061 61.8019 22.0315C61.8334 21.9569 61.8496 21.8768 61.8496 21.7959C61.8496 21.7149 61.8334 21.6348 61.8019 21.5602C61.7704 21.4856 61.7243 21.4181 61.6663 21.3616Z" fill="#333333"/>
<path d="M64.4201 23.7735C64.1477 23.6304 63.9198 23.4151 63.7615 23.1513C63.6055 22.8796 63.5234 22.5719 63.5234 22.2587C63.5234 21.9454 63.6055 21.6377 63.7615 21.3661C63.9198 21.1022 64.1477 20.887 64.4201 20.7438C64.7126 20.5951 65.0361 20.5176 65.3642 20.5176C65.6924 20.5176 66.0159 20.5951 66.3084 20.7438C66.5803 20.8879 66.8081 21.103 66.9677 21.3661C67.1249 21.6373 67.2077 21.9452 67.2077 22.2587C67.2077 22.5721 67.1249 22.88 66.9677 23.1513C66.8081 23.4144 66.5803 23.6294 66.3084 23.7735C66.0159 23.9222 65.6924 23.9997 65.3642 23.9997C65.0361 23.9997 64.7126 23.9222 64.4201 23.7735ZM65.9034 23.1987C66.0622 23.1089 66.193 22.9766 66.2809 22.8168C66.3711 22.6445 66.4181 22.453 66.4181 22.2587C66.4181 22.0643 66.3711 21.8728 66.2809 21.7006C66.1928 21.5406 66.0621 21.4082 65.9034 21.3179C65.7379 21.2283 65.5527 21.1814 65.3646 21.1814C65.1764 21.1814 64.9912 21.2283 64.8258 21.3179C64.6672 21.4084 64.5366 21.5408 64.4483 21.7006C64.3581 21.8728 64.3111 22.0643 64.3111 22.2587C64.3111 22.453 64.3581 22.6445 64.4483 22.8168C64.5364 22.9765 64.6671 23.1087 64.8258 23.1987C64.9911 23.2888 65.1763 23.3359 65.3646 23.3359C65.5528 23.3359 65.7381 23.2888 65.9034 23.1987Z" fill="#333333"/>
<path d="M68.276 20.5739H69.0548V23.3055H70.7458V23.9411H68.276V20.5739Z" fill="#333333"/>
<path d="M71.6625 20.5739H72.4412V23.3055H74.13V23.9411H71.6625V20.5739Z" fill="#333333"/>
<path d="M77.6559 23.3181V23.9441H75.0475V20.5739H77.5922V21.1992H75.8225V21.9305H77.3852V22.5364H75.8225V23.3181H77.6559Z" fill="#333333"/>
<path d="M80.9022 23.9426L80.2532 23.0044H79.5368V23.9426H78.7558V20.5739H80.2132C80.4799 20.5675 80.7449 20.6181 80.9905 20.7223C81.1971 20.8108 81.3734 20.9578 81.4978 21.145C81.6196 21.3394 81.6815 21.5654 81.6758 21.7947C81.6847 22.0218 81.6229 22.2461 81.4988 22.4365C81.3747 22.6269 81.1944 22.7741 80.983 22.8575L81.7381 23.9404L80.9022 23.9426ZM80.7057 21.3616C80.5835 21.2627 80.4055 21.2133 80.1716 21.2133H79.5368V22.3836H80.1716C80.4055 22.3836 80.5835 22.3324 80.7057 22.2301C80.7634 22.1735 80.8093 22.1059 80.8406 22.0313C80.8719 21.9568 80.888 21.8767 80.888 21.7958C80.888 21.715 80.8719 21.6349 80.8406 21.5603C80.8093 21.4858 80.7634 21.4182 80.7057 21.3616Z" fill="#333333"/>
<defs>
<linearGradient id="paint0_linear_11_1461" x1="0.012822" y1="8.0712" x2="82.375" y2="8.0712" gradientUnits="userSpaceOnUse">
<stop stop-color="#58A0FF"/>
<stop offset="0.45" stop-color="#5888FF"/>
<stop offset="1" stop-color="#5966FF"/>
</linearGradient>
</defs>
</svg>
