<svg width="60" height="60" viewBox="0 0 60 60" fill="none" xmlns="http://www.w3.org/2000/svg">
<rect x="1" y="1" width="58" height="58" rx="29" stroke="#1D80EC" stroke-width="2"/>
<path fill-rule="evenodd" clip-rule="evenodd" d="M24.6667 23.3333C24.6667 21.9188 25.2286 20.5623 26.2288 19.5621C27.229 18.5619 28.5855 18 30 18C31.4145 18 32.771 18.5619 33.7712 19.5621C34.7714 20.5623 35.3333 21.9188 35.3333 23.3333C35.3333 24.7478 34.7714 26.1044 33.7712 27.1046C32.771 28.1048 31.4145 28.6667 30 28.6667C28.5855 28.6667 27.229 28.1048 26.2288 27.1046C25.2286 26.1044 24.6667 24.7478 24.6667 23.3333ZM24.6667 31.3333C22.8986 31.3333 21.2029 32.0357 19.9526 33.286C18.7024 34.5362 18 36.2319 18 38C18 39.0609 18.4214 40.0783 19.1716 40.8284C19.9217 41.5786 20.9391 42 22 42H38C39.0609 42 40.0783 41.5786 40.8284 40.8284C41.5786 40.0783 42 39.0609 42 38C42 36.2319 41.2976 34.5362 40.0474 33.286C38.7971 32.0357 37.1014 31.3333 35.3333 31.3333H24.6667Z" fill="#1D80EC"/>
</svg>
